<svg width="19" height="19" viewBox="0 0 19 19" fill="none" xmlns="http://www.w3.org/2000/svg">
<g clip-path="url(#clip0_5_560)">
<path d="M0.508929 8.30229H7.56607C7.84768 8.30229 8.075 8.07495 8.075 7.79336V0.732805C8.075 0.454608 7.84768 0.223877 7.56607 0.223877H0.508929C0.227315 0.223877 0 0.454608 0 0.732805V7.79336C0 8.07495 0.227315 8.30229 0.508929 8.30229Z" fill="white"/>
<path d="M11.4339 8.30229H18.4911C18.7727 8.30229 19 8.07495 19 7.79336V0.732805C19 0.454608 18.7727 0.223877 18.4911 0.223877H11.4339C11.1523 0.223877 10.925 0.454608 10.925 0.732805V7.79336C10.925 8.07495 11.1523 8.30229 11.4339 8.30229Z" fill="white"/>
<path d="M0.508929 18.9999H7.56607C7.84768 18.9999 8.075 18.7692 8.075 18.491V11.4304C8.075 11.1488 7.84768 10.9215 7.56607 10.9215H0.508929C0.227315 10.9215 0 11.1488 0 11.4304V18.491C0 18.7692 0.227315 18.9999 0.508929 18.9999Z" fill="white"/>
<path d="M11.4339 18.9999H18.4911C18.7727 18.9999 19 18.7692 19 18.491V11.4304C19 11.1488 18.7727 10.9215 18.4911 10.9215H11.4339C11.1523 10.9215 10.925 11.1488 10.925 11.4304V18.491C10.925 18.7692 11.1523 18.9999 11.4339 18.9999Z" fill="white"/>
</g>
<defs>
<clipPath id="clip0_5_560">
<rect width="19" height="19" fill="white"/>
</clipPath>
</defs>
</svg>
